<mxfile host="app.diagrams.net" modified="2024-05-30T06:11:54.621Z" agent="Mozilla/5.0 (Windows NT 10.0; Win64; x64) AppleWebKit/537.36 (KHTML, like Gecko) Chrome/125.0.0.0 Safari/537.36 Edg/125.0.0.0" etag="_czjQSHuxoCPEtthQGy8" version="24.4.10" type="device">
  <diagram name="Page-1" id="Nb3mr4sIKNtoMPR1qbap">
    <mxGraphModel dx="2173" dy="1782" grid="1" gridSize="10" guides="1" tooltips="1" connect="1" arrows="1" fold="1" page="1" pageScale="1" pageWidth="827" pageHeight="1169" math="0" shadow="0">
      <root>
        <mxCell id="0" />
        <mxCell id="1" parent="0" />
        <mxCell id="QOD2jOJyV-rBmPWAXtNz-1" value="Actor" style="shape=umlActor;verticalLabelPosition=bottom;verticalAlign=top;html=1;outlineConnect=0;" parent="1" vertex="1">
          <mxGeometry x="-180" y="100" width="70" height="140" as="geometry" />
        </mxCell>
        <mxCell id="QOD2jOJyV-rBmPWAXtNz-10" value="" style="endArrow=classic;html=1;rounded=0;" parent="1" edge="1">
          <mxGeometry relative="1" as="geometry">
            <mxPoint x="220" y="290" as="sourcePoint" />
            <mxPoint x="220" y="290" as="targetPoint" />
          </mxGeometry>
        </mxCell>
        <mxCell id="SCW97uF3SpequzDYC_hf-2" style="edgeStyle=orthogonalEdgeStyle;rounded=0;orthogonalLoop=1;jettySize=auto;html=1;exitX=0.5;exitY=0;exitDx=0;exitDy=0;entryX=0;entryY=0.5;entryDx=0;entryDy=0;" edge="1" parent="1" source="QOD2jOJyV-rBmPWAXtNz-18" target="QOD2jOJyV-rBmPWAXtNz-21">
          <mxGeometry relative="1" as="geometry" />
        </mxCell>
        <mxCell id="SCW97uF3SpequzDYC_hf-3" style="edgeStyle=orthogonalEdgeStyle;rounded=0;orthogonalLoop=1;jettySize=auto;html=1;exitX=0.5;exitY=1;exitDx=0;exitDy=0;entryX=0;entryY=0.5;entryDx=0;entryDy=0;" edge="1" parent="1" source="QOD2jOJyV-rBmPWAXtNz-18" target="QOD2jOJyV-rBmPWAXtNz-20">
          <mxGeometry relative="1" as="geometry" />
        </mxCell>
        <mxCell id="QOD2jOJyV-rBmPWAXtNz-18" value="Login" style="shape=process;whiteSpace=wrap;html=1;backgroundOutline=1;" parent="1" vertex="1">
          <mxGeometry x="-20" y="220" width="120" height="30" as="geometry" />
        </mxCell>
        <mxCell id="QOD2jOJyV-rBmPWAXtNz-20" value="G Service" style="shape=process;whiteSpace=wrap;html=1;backgroundOutline=1;" parent="1" vertex="1">
          <mxGeometry x="370" y="370" width="120" height="30" as="geometry" />
        </mxCell>
        <mxCell id="QOD2jOJyV-rBmPWAXtNz-21" value="G Stock" style="shape=process;whiteSpace=wrap;html=1;backgroundOutline=1;" parent="1" vertex="1">
          <mxGeometry x="370" y="80" width="120" height="30" as="geometry" />
        </mxCell>
        <mxCell id="QOD2jOJyV-rBmPWAXtNz-32" style="edgeStyle=orthogonalEdgeStyle;rounded=0;orthogonalLoop=1;jettySize=auto;html=1;exitX=0;exitY=0.75;exitDx=0;exitDy=0;" parent="1" source="QOD2jOJyV-rBmPWAXtNz-25" target="QOD2jOJyV-rBmPWAXtNz-21" edge="1">
          <mxGeometry relative="1" as="geometry">
            <Array as="points">
              <mxPoint x="890" y="-35" />
              <mxPoint x="450" y="-35" />
            </Array>
          </mxGeometry>
        </mxCell>
        <mxCell id="QOD2jOJyV-rBmPWAXtNz-25" value="Vente" style="shape=process;whiteSpace=wrap;html=1;backgroundOutline=1;" parent="1" vertex="1">
          <mxGeometry x="890" y="-50" width="120" height="30" as="geometry" />
        </mxCell>
        <mxCell id="QOD2jOJyV-rBmPWAXtNz-37" style="edgeStyle=orthogonalEdgeStyle;rounded=0;orthogonalLoop=1;jettySize=auto;html=1;" parent="1" source="QOD2jOJyV-rBmPWAXtNz-46" target="QOD2jOJyV-rBmPWAXtNz-20" edge="1">
          <mxGeometry relative="1" as="geometry" />
        </mxCell>
        <mxCell id="QOD2jOJyV-rBmPWAXtNz-26" value="Prestation" style="shape=process;whiteSpace=wrap;html=1;backgroundOutline=1;" parent="1" vertex="1">
          <mxGeometry x="890" y="230" width="100" height="30" as="geometry" />
        </mxCell>
        <mxCell id="QOD2jOJyV-rBmPWAXtNz-39" style="edgeStyle=orthogonalEdgeStyle;rounded=0;orthogonalLoop=1;jettySize=auto;html=1;entryX=0.5;entryY=1;entryDx=0;entryDy=0;" parent="1" source="QOD2jOJyV-rBmPWAXtNz-47" target="QOD2jOJyV-rBmPWAXtNz-20" edge="1">
          <mxGeometry relative="1" as="geometry" />
        </mxCell>
        <mxCell id="YLBnLbY-voclfy30w-sZ-2" style="edgeStyle=orthogonalEdgeStyle;rounded=0;orthogonalLoop=1;jettySize=auto;html=1;exitX=0;exitY=0.5;exitDx=0;exitDy=0;entryX=1;entryY=0.5;entryDx=0;entryDy=0;" parent="1" source="QOD2jOJyV-rBmPWAXtNz-27" target="QOD2jOJyV-rBmPWAXtNz-47" edge="1">
          <mxGeometry relative="1" as="geometry" />
        </mxCell>
        <mxCell id="QOD2jOJyV-rBmPWAXtNz-27" value="Tarification" style="shape=process;whiteSpace=wrap;html=1;backgroundOutline=1;" parent="1" vertex="1">
          <mxGeometry x="890" y="480" width="120" height="30" as="geometry" />
        </mxCell>
        <mxCell id="QOD2jOJyV-rBmPWAXtNz-35" style="edgeStyle=orthogonalEdgeStyle;rounded=0;orthogonalLoop=1;jettySize=auto;html=1;" parent="1" source="QOD2jOJyV-rBmPWAXtNz-28" target="QOD2jOJyV-rBmPWAXtNz-21" edge="1">
          <mxGeometry relative="1" as="geometry" />
        </mxCell>
        <mxCell id="QOD2jOJyV-rBmPWAXtNz-28" value="Produits" style="shape=process;whiteSpace=wrap;html=1;backgroundOutline=1;" parent="1" vertex="1">
          <mxGeometry x="890" y="120" width="120" height="30" as="geometry" />
        </mxCell>
        <mxCell id="QOD2jOJyV-rBmPWAXtNz-29" value="Approvisionnement" style="shape=process;whiteSpace=wrap;html=1;backgroundOutline=1;" parent="1" vertex="1">
          <mxGeometry x="890" y="30" width="140" height="30" as="geometry" />
        </mxCell>
        <mxCell id="QOD2jOJyV-rBmPWAXtNz-33" style="edgeStyle=orthogonalEdgeStyle;rounded=0;orthogonalLoop=1;jettySize=auto;html=1;exitX=0;exitY=0.5;exitDx=0;exitDy=0;entryX=0.5;entryY=0;entryDx=0;entryDy=0;" parent="1" source="QOD2jOJyV-rBmPWAXtNz-41" target="QOD2jOJyV-rBmPWAXtNz-21" edge="1">
          <mxGeometry relative="1" as="geometry" />
        </mxCell>
        <mxCell id="QOD2jOJyV-rBmPWAXtNz-30" value="Dépenses" style="shape=process;whiteSpace=wrap;html=1;backgroundOutline=1;" parent="1" vertex="1">
          <mxGeometry x="890" y="-140" width="120" height="30" as="geometry" />
        </mxCell>
        <mxCell id="QOD2jOJyV-rBmPWAXtNz-38" style="edgeStyle=orthogonalEdgeStyle;rounded=0;orthogonalLoop=1;jettySize=auto;html=1;exitX=0;exitY=0.5;exitDx=0;exitDy=0;entryX=0.844;entryY=0;entryDx=0;entryDy=0;entryPerimeter=0;" parent="1" source="QOD2jOJyV-rBmPWAXtNz-29" target="QOD2jOJyV-rBmPWAXtNz-21" edge="1">
          <mxGeometry relative="1" as="geometry" />
        </mxCell>
        <mxCell id="QOD2jOJyV-rBmPWAXtNz-42" value="Choisir" style="ellipse;whiteSpace=wrap;html=1;" parent="1" vertex="1">
          <mxGeometry x="140" y="70" width="100" height="50" as="geometry" />
        </mxCell>
        <mxCell id="QOD2jOJyV-rBmPWAXtNz-43" value="Enregistrer" style="ellipse;whiteSpace=wrap;html=1;" parent="1" vertex="1">
          <mxGeometry x="600" y="-60" width="100" height="50" as="geometry" />
        </mxCell>
        <mxCell id="QOD2jOJyV-rBmPWAXtNz-44" value="Gérer" style="ellipse;whiteSpace=wrap;html=1;" parent="1" vertex="1">
          <mxGeometry x="600" y="20" width="100" height="50" as="geometry" />
        </mxCell>
        <mxCell id="QOD2jOJyV-rBmPWAXtNz-45" value="Créer" style="ellipse;whiteSpace=wrap;html=1;" parent="1" vertex="1">
          <mxGeometry x="600" y="110" width="100" height="50" as="geometry" />
        </mxCell>
        <mxCell id="QOD2jOJyV-rBmPWAXtNz-48" value="" style="edgeStyle=orthogonalEdgeStyle;rounded=0;orthogonalLoop=1;jettySize=auto;html=1;" parent="1" source="QOD2jOJyV-rBmPWAXtNz-26" target="QOD2jOJyV-rBmPWAXtNz-46" edge="1">
          <mxGeometry relative="1" as="geometry">
            <mxPoint x="610" y="210" as="sourcePoint" />
            <mxPoint x="420" y="240" as="targetPoint" />
          </mxGeometry>
        </mxCell>
        <mxCell id="QOD2jOJyV-rBmPWAXtNz-46" value="Gérer" style="ellipse;whiteSpace=wrap;html=1;" parent="1" vertex="1">
          <mxGeometry x="610" y="220" width="100" height="50" as="geometry" />
        </mxCell>
        <mxCell id="QOD2jOJyV-rBmPWAXtNz-49" value="" style="edgeStyle=orthogonalEdgeStyle;rounded=0;orthogonalLoop=1;jettySize=auto;html=1;exitX=0;exitY=0.5;exitDx=0;exitDy=0;entryX=0.5;entryY=0;entryDx=0;entryDy=0;" parent="1" source="QOD2jOJyV-rBmPWAXtNz-30" target="QOD2jOJyV-rBmPWAXtNz-41" edge="1">
          <mxGeometry relative="1" as="geometry">
            <mxPoint x="880" y="-135" as="sourcePoint" />
            <mxPoint x="430" y="80" as="targetPoint" />
            <Array as="points">
              <mxPoint x="650" y="-125" />
            </Array>
          </mxGeometry>
        </mxCell>
        <mxCell id="QOD2jOJyV-rBmPWAXtNz-41" value="Gérer" style="ellipse;whiteSpace=wrap;html=1;" parent="1" vertex="1">
          <mxGeometry x="600" y="-150" width="100" height="50" as="geometry" />
        </mxCell>
        <mxCell id="QOD2jOJyV-rBmPWAXtNz-47" value="Gérer" style="ellipse;whiteSpace=wrap;html=1;" parent="1" vertex="1">
          <mxGeometry x="610" y="470" width="100" height="51" as="geometry" />
        </mxCell>
        <mxCell id="SCW97uF3SpequzDYC_hf-4" value="Choisir" style="ellipse;whiteSpace=wrap;html=1;" vertex="1" parent="1">
          <mxGeometry x="140" y="360" width="100" height="50" as="geometry" />
        </mxCell>
        <mxCell id="SCW97uF3SpequzDYC_hf-5" style="edgeStyle=orthogonalEdgeStyle;rounded=0;orthogonalLoop=1;jettySize=auto;html=1;exitX=0.5;exitY=1;exitDx=0;exitDy=0;entryX=0.4;entryY=1;entryDx=0;entryDy=0;entryPerimeter=0;" edge="1" parent="1" source="QOD2jOJyV-rBmPWAXtNz-43" target="QOD2jOJyV-rBmPWAXtNz-43">
          <mxGeometry relative="1" as="geometry" />
        </mxCell>
        <mxCell id="SCW97uF3SpequzDYC_hf-6" value="Text" style="edgeLabel;html=1;align=center;verticalAlign=middle;resizable=0;points=[];" vertex="1" connectable="0" parent="SCW97uF3SpequzDYC_hf-5">
          <mxGeometry x="0.2" y="-2" relative="1" as="geometry">
            <mxPoint as="offset" />
          </mxGeometry>
        </mxCell>
      </root>
    </mxGraphModel>
  </diagram>
</mxfile>
